<?xml version="1.0" standalone="no"?>
<!DOCTYPE svg PUBLIC "-//W3C//DTD SVG 20010904//EN"
 "http://www.w3.org/TR/2001/REC-SVG-20010904/DTD/svg10.dtd">
<svg version="1.0" xmlns="http://www.w3.org/2000/svg"
 width="1024.000000pt" height="1024.000000pt" viewBox="0 0 1024.000000 1024.000000"
 preserveAspectRatio="xMidYMid meet">

<g transform="translate(0.000000,1024.000000) scale(0.100000,-0.100000)"
fill="#000000" stroke="none">
<path d="M5025 9099 c-338 -32 -614 -300 -676 -654 -15 -85 -7 -268 15 -350
23 -85 85 -209 141 -284 98 -129 279 -244 436 -277 98 -20 275 -20 361 0 197
46 360 160 472 330 101 152 139 277 139 456 0 222 -78 407 -236 563 -172 169
-391 241 -652 216z"/>
<path d="M2380 8206 c0 -2 -23 -111 -50 -243 -108 -511 -130 -614 -130 -622 0
-5 17 -12 38 -16 151 -27 435 -112 617 -185 125 -49 351 -169 476 -252 559
-371 989 -991 1177 -1698 94 -354 136 -727 130 -1153 l-3 -227 470 0 470 0 1
293 c1 369 24 596 95 917 125 575 393 1074 804 1499 384 396 832 643 1420 781
77 19 141 34 143 36 2 1 -36 198 -85 438 -83 409 -89 436 -109 436 -12 0 -77
-11 -145 -25 -651 -133 -1190 -410 -1590 -816 -370 -376 -669 -913 -844 -1515
-52 -179 -106 -408 -132 -561 -10 -57 -20 -103 -23 -103 -4 0 -14 53 -24 118
-85 557 -277 1117 -518 1512 -368 604 -868 1005 -1540 1235 -239 82 -648 177
-648 151z"/>
<path d="M2115 6414 c-16 -2 -73 -9 -125 -15 -118 -13 -328 -66 -449 -113
-186 -72 -438 -217 -593 -342 l-67 -54 82 -113 c45 -62 154 -215 242 -340 88
-125 163 -227 166 -227 3 0 50 32 104 70 283 203 548 289 850 277 313 -13 582
-132 811 -361 202 -203 337 -474 395 -794 32 -170 32 -434 1 -589 -72 -362
-255 -669 -517 -865 -44 -33 -81 -64 -83 -68 -3 -8 213 -758 221 -767 4 -3 41
16 84 43 286 178 567 460 745 746 161 260 290 624 327 924 68 554 -57 1136
-346 1608 -136 221 -323 430 -513 572 -243 182 -556 322 -845 378 -148 29
-378 43 -490 30z"/>
<path d="M7752 6409 c-620 -65 -1203 -451 -1524 -1009 -197 -343 -300 -722
-315 -1155 -14 -430 61 -799 232 -1143 194 -389 435 -659 812 -913 56 -38 106
-69 112 -69 5 0 11 8 14 17 3 10 48 171 100 359 53 187 101 353 107 369 6 15
7 31 3 35 -4 4 -42 32 -84 63 -521 386 -680 1203 -364 1862 194 404 556 675
968 726 119 15 304 5 414 -22 163 -39 355 -129 541 -254 61 -40 106 -65 110
-59 20 30 242 342 349 490 68 95 123 176 123 182 0 26 -265 212 -410 286 -169
88 -381 164 -560 201 -185 39 -445 53 -628 34z"/>
</g>
</svg>
